<svg xmlns="http://www.w3.org/2000/svg" width="480" height="800" fill="none" viewBox="0 0 480 800"><path fill="#FBF9F8" d="M0 0h480v800H0z"/><mask id="a" fill="#fff"><path d="M0 0h480v76H0z"/></mask><path fill="#161513" fill-opacity=".12" d="M480 76v-1H0v2h480z" mask="url(#a)"/><path fill="#161513" d="M17.42 22.46h9.28v2.64h-8.3l2.14-2.02V37h-3.12zm.92 6.3H26v2.64h-7.66zM36.88 37H34.9l-.58-2.18.58-.06a4 4 0 0 1-1.46 1.82q-1 .66-2.28.66-1.65 0-2.6-.9a3.3 3.3 0 0 1-.94-2.48q0-1.1.56-1.9t1.62-1.24q1.05-.45 2.48-.44h2.96v1.76h-2.58q-1.05 0-1.62.4-.56.4-.56 1.14 0 .67.36 1.06.38.38 1.1.38.5 0 .94-.18.44-.2.78-.54.36-.36.58-.84l-.16 1v-3.02l-.06-.66v-.88q0-.89-.44-1.14a3 3 0 0 0-1.38-.26 11 11 0 0 0-3.62.76v-2.3a11 11 0 0 1 4.04-.78q2.07 0 3.16.96 1.1.94 1.1 2.72zm2.53-10.58h1.98l.64 2.4-.72-.02q.48-.86 1.12-1.44a4.8 4.8 0 0 1 3.16-1.18q1.82 0 2.78 1.12.96 1.1.96 3.2V37h-3.04v-6.4q0-.98-.4-1.46t-1.22-.48q-.72 0-1.32.42-.58.42-.9 1.18V37h-3.04zm21.7-3.96h3.02L69.7 37h-3.48l-3.9-12.08h.48L58.93 37H55.6zm-1.96 8.92H66l.72 2.64h-8.28zm18.66 5q-1.19.86-3.44.86-1.02 0-2.04-.2a6 6 0 0 1-1.62-.5v-2.4q1.02.38 1.86.56.84.16 1.74.16.88 0 1.3-.22.42-.23.42-.66 0-.34-.34-.56a4 4 0 0 0-1.08-.44l-1.48-.42a4.5 4.5 0 0 1-2.02-1.12 2.6 2.6 0 0 1-.68-1.88q0-1.58 1.2-2.48t3.3-.9q.9 0 1.82.16.92.15 1.58.44v2.36a10 10 0 0 0-3.34-.62q-.83 0-1.22.2a.7.7 0 0 0-.38.62q0 .28.32.5a4 4 0 0 0 1.06.44l1.48.42q1.52.45 2.12 1.12.62.68.62 1.98 0 1.7-1.18 2.58m9.69 0q-1.2.86-3.44.86-1.02 0-2.04-.2a6 6 0 0 1-1.62-.5v-2.4q1.02.38 1.86.56.84.16 1.74.16.88 0 1.3-.22.42-.23.42-.66 0-.34-.34-.56a4 4 0 0 0-1.08-.44l-1.48-.42a4.5 4.5 0 0 1-2.02-1.12 2.6 2.6 0 0 1-.68-1.88q0-1.58 1.2-2.48t3.3-.9q.9 0 1.82.16.91.15 1.58.44v2.36a10 10 0 0 0-3.34-.62q-.83 0-1.22.2a.7.7 0 0 0-.38.62q0 .28.32.5a4 4 0 0 0 1.06.44l1.48.42q1.51.45 2.12 1.12t.62 1.98q0 1.7-1.18 2.58m3.94-.56q-1.46-1.44-1.46-4.14a5.6 5.6 0 0 1 1.4-4.04 5.2 5.2 0 0 1 3.9-1.46q2.2 0 3.36 1.28A5 5 0 0 1 99.8 31v1.54h-8.06v-1.98h6.52l-1.16.86v-.74q0-1.06-.5-1.68a1.7 1.7 0 0 0-1.36-.62q-1.11 0-1.72.66-.6.64-.6 1.88l.02.72q0 1.7.72 2.48t2.28.78q.84 0 1.6-.14.78-.16 1.76-.54v2.28a10 10 0 0 1-3.68.74q-2.71 0-4.18-1.42m10.41-9.4h1.98l.68 2.54-.76-.18q.44-.84 1.04-1.42a4.2 4.2 0 0 1 2.94-1.18q1.36 0 2.22.7.86.68 1.16 2.04l-.9-.14q.39-.82.98-1.4.63-.58 1.4-.88a4 4 0 0 1 1.64-.32q1.74 0 2.66 1.12.92 1.1.92 3.2V37h-3.04v-6.4q0-1-.38-1.46-.36-.48-1.12-.48-.67 0-1.18.42a2.6 2.6 0 0 0-.76 1.18V37h-3v-6.4q0-.98-.36-1.46t-1.12-.48q-.67 0-1.2.42a2.6 2.6 0 0 0-.76 1.18V37h-3.04zm18.44-4.44h3.04v5.66l-.04 1.1v6.58l-.54-.74q.63.23.92.3t.74.06a3 3 0 0 0 1.54-.38q.61-.4.94-1.16t.32-1.9q0-1.5-.52-2.32a1.6 1.6 0 0 0-1.46-.82q-.72 0-1.32.42t-1.06 1.26l-.54-1.54q.63-1.14 1.58-1.72.93-.6 2.12-.6 2.03 0 3.14 1.4 1.12 1.38 1.12 3.94 0 1.76-.7 3.06a5 5 0 0 1-2 1.98q-1.3.68-3.12.68-1.02 0-2.18-.22-1.17-.23-1.98-.54zM135.34 37h-3.04V24.12l-1.1-.92v-1.22h4.14zm3.5 1.98q1.05-.24 1.66-.54.65-.28.98-.68.36-.4.52-.98l.12-.4.46-1.06 2.18-8.9h3l-2.64 9.74q-.45 1.66-1.18 2.74a5 5 0 0 1-1.78 1.68q-1.08.6-2.7.88zm1.58-2.2-3.54-10.36H140l2.92 9.16-.14 1.2zm8.7-6.36h6.2V33h-6.2zm9.15 4.92q-1.42-1.92-1.42-5.6 0-3.64 1.4-5.48 1.4-1.86 4.18-1.86t4.18 1.86q1.4 1.84 1.4 5.48 0 3.68-1.42 5.6a4.9 4.9 0 0 1-4.16 1.92 4.9 4.9 0 0 1-4.16-1.92m5.54-1.16q.56-.53.82-1.64.26-1.12.26-2.8 0-1.65-.26-2.72a3 3 0 0 0-.8-1.56 2 2 0 0 0-1.4-.52q-.84 0-1.4.52-.54.5-.8 1.56-.26 1.05-.26 2.72t.26 2.8q.28 1.1.82 1.64t1.38.54 1.38-.54m10.53-.76q.68-.94 1.14-1.74.49-.8.76-1.5a7 7 0 0 0 .54-2.68q0-1.24-.62-1.94-.61-.7-1.72-.7-1.09 0-1.72.72a3 3 0 0 0-.62 1.96q0 .75.26 1.34t.74.9q.51.3 1.14.3.88 0 1.56-.46.67-.48 1.06-1.4l.6 1.12a6 6 0 0 1-1.66 2.28q-.97.75-2.26.74-1.36 0-2.36-.58a4 4 0 0 1-1.52-1.64 6 6 0 0 1-.52-2.54q0-1.58.64-2.74a4.5 4.5 0 0 1 1.86-1.82q1.2-.64 2.8-.64 2.5 0 3.9 1.4 1.4 1.38 1.4 3.88 0 1.34-.6 2.94a13 13 0 0 1-1.72 3.12L175.08 37h-3.32zm14.61-8.64.4.48h-5.82l1.08-.6-1.08 2.84h-1.84v-4.84H192v2.08L186.97 37h-3.4zm12 0 .4.48h-5.82l1.08-.6-1.08 2.84h-1.84v-4.84h10.3v2.08L198.97 37h-3.4z"/><path fill="#161513" fill-opacity=".7" d="M18.38 57h-1.24v-6.22l-.71-.45v-.5h1.95zm-1.53-9.95h1.51v1.1h-1.5zm3.83 3.79h-1.24v-.63l1.24-.41.5-1.96h.73v1.98h1.56v1.02H21.9v3.96q0 .6.26.9.27.28.76.28a4 4 0 0 0 .62-.05V57q-.2.05-.4.05l-.41.02q-1.05 0-1.57-.55-.5-.56-.5-1.7zm4.69 5.35q-.87-.97-.87-2.85 0-1.8.82-2.73.84-.94 2.4-.94 1.5 0 2.25.83.74.83.74 2.48v.8h-5.55v-.97h4.96l-.6.48v-.48q0-1.14-.43-1.63-.4-.5-1.37-.5t-1.49.63q-.5.61-.5 1.8v.23q0 1.45.57 2.1.57.67 1.77.67a5 5 0 0 0 2.3-.51v1.04q-.39.24-1.03.37-.63.15-1.39.14-1.71 0-2.58-.96m6.92-6.37h.83l.3 1.6-.27-.06a3 3 0 0 1 1.5-1.48q.5-.2 1.05-.2.9 0 1.48.43.57.44.81 1.32h-.33a2.9 2.9 0 0 1 2.64-1.76q1.17 0 1.79.74.62.73.62 2.15V57h-1.24v-4.41q0-.94-.36-1.4t-1.08-.46q-.7 0-1.21.4-.5.38-.7 1.07V57h-1.23v-4.41q0-.94-.38-1.4t-1.1-.46q-.68 0-1.19.43a2 2 0 0 0-.7 1.12V57H32.3zM54.13 57h-.84L53 55.46l.24.12q-.4.73-1.1 1.16-.69.4-1.5.41-1.42 0-2.23-.99a4.3 4.3 0 0 1-.8-2.73q0-1.78.8-2.77.82-.99 2.25-.99.66 0 1.3.29.63.27 1.1.78v1.13q-.43-.6-.98-.9t-1.2-.3-1.1.32q-.43.32-.67.92-.23.6-.23 1.5 0 1.31.5 2.02.52.72 1.45.72a2.2 2.2 0 0 0 1.72-.81q.35-.4.5-.91l-.17.7v-8.46h1.24zm2.47-.81q-.87-.97-.87-2.85 0-1.8.83-2.73.84-.94 2.39-.94 1.5 0 2.26.83.74.83.74 2.48v.8h-5.56v-.97h4.97l-.6.48v-.48q0-1.14-.43-1.63-.42-.5-1.38-.5-.98 0-1.48.63-.5.61-.5 1.8v.23q0 1.45.56 2.1.57.67 1.78.67a5 5 0 0 0 2.3-.51v1.04q-.38.24-1.04.37-.63.15-1.39.14-1.7 0-2.58-.96m11.2.38a3.6 3.6 0 0 1-2.17.58q-.66 0-1.29-.14-.63-.13-1.07-.37V55.6q.65.27 1.17.4a5 5 0 0 0 1.12.12q.9 0 1.35-.26.44-.27.44-.81 0-.43-.26-.66-.26-.25-.92-.43l-1.13-.3a3 3 0 0 1-1.44-.74q-.45-.48-.46-1.23 0-.93.73-1.47.74-.55 2-.55.68 0 1.25.11t.97.3v1.05a5 5 0 0 0-2.14-.43q-.8 0-1.18.22a.7.7 0 0 0-.39.69q0 .39.23.62.25.22.86.38l1.14.3q1.05.29 1.51.78.47.48.47 1.3 0 1-.79 1.58m2.17-1.14a5 5 0 0 1-.37-2.1q0-1.17.4-1.98.4-.8 1.17-1.24t1.86-.44a4 4 0 0 1 1.88.45v1.02q-.45-.23-.88-.34a3 3 0 0 0-.81-.11q-1.19 0-1.77.67-.58.66-.58 1.97 0 1.43.53 2.12.55.68 1.72.68.47 0 .95-.12t1.05-.38v1.01q-.41.26-.98.37-.55.15-1.18.14-1.1 0-1.86-.42-.74-.45-1.13-1.3m6.65-5.6h.84l.32 1.73h-.25q.33-.85.9-1.3a2 2 0 0 1 1.55-.44l.22.03v1.09h-.32q-.78 0-1.3.44-.53.44-.72 1.27V57h-1.24zM83.2 57h-1.23v-6.22l-.72-.45v-.5h1.95zm-1.52-9.95h1.51v1.1h-1.51zm3.59 2.77h.84l.27 1.54-.23-.12a3 3 0 0 1 2.6-1.57q1.43 0 2.22 1 .8.96.8 2.73t-.81 2.76q-.8 1-2.24 1a3.2 3.2 0 0 1-2.4-1.08v-1.13q.45.6.98.9.56.3 1.2.3.65 0 1.09-.32t.68-.92.24-1.5q0-1.3-.51-2.02a1.7 1.7 0 0 0-1.45-.72q-.5 0-.94.23-.44.2-.77.59-.34.38-.51.9l.18-.7v8.07h-1.24zm8.34 1.02h-1.24v-.63l1.24-.41.5-1.96h.74v1.98h1.55v1.02h-1.55v3.96q0 .6.26.9.26.28.76.28a4 4 0 0 0 .62-.05V57q-.2.05-.4.05l-.42.02q-1.05 0-1.56-.55-.5-.56-.5-1.7zM99.5 57h-1.24v-6.22l-.72-.45v-.5h1.96zm-1.53-9.95h1.51v1.1h-1.51zm4.03 9.11q-.9-1-.9-2.75 0-1.76.9-2.75t2.52-.99 2.53 1q.9.98.89 2.74 0 1.75-.9 2.75-.89 1-2.53 1a3.2 3.2 0 0 1-2.51-1m4.12-.71q.55-.7.55-2.04 0-1.33-.55-2.02-.55-.7-1.6-.7t-1.6.7q-.55.69-.55 2.02 0 1.34.55 2.04.55.68 1.6.68t1.6-.68m3.43-5.63h.84l.29 1.61-.28-.05q.3-.54.72-.91a3 3 0 0 1 2.09-.8q1.23 0 1.9.74.65.74.65 2.15V57h-1.23v-4.4q0-.94-.42-1.4-.4-.47-1.2-.47-.7 0-1.27.43-.57.41-.85 1.12V57h-1.24zm11.57-3.15h1.24v4.75l-.32-.04q.3-.54.7-.91a2.8 2.8 0 0 1 2.04-.8q1.24 0 1.9.74t.66 2.15V57h-1.24v-4.4q0-.94-.41-1.4-.4-.47-1.21-.47-.69 0-1.27.43-.56.41-.85 1.12V57h-1.24zm8.62 9.52q-.87-.97-.87-2.85 0-1.8.83-2.73.84-.94 2.4-.94 1.5 0 2.25.83t.74 2.48v.8h-5.56v-.97h4.97l-.6.48v-.48q0-1.14-.43-1.63-.42-.5-1.38-.5-.98 0-1.48.63-.5.61-.5 1.8v.23q0 1.45.56 2.1.57.67 1.78.67a5 5 0 0 0 2.3-.51v1.04q-.38.24-1.04.37-.63.15-1.39.14-1.7 0-2.58-.96m6.92-6.37h.84l.31 1.73h-.24q.32-.85.89-1.29a2 2 0 0 1 1.55-.44l.22.03v1.09h-.31q-.79 0-1.3.44-.54.44-.72 1.27V57h-1.24zm5.23 6.37q-.87-.97-.86-2.85 0-1.8.82-2.73.84-.94 2.4-.94 1.5 0 2.25.83t.74 2.48v.8h-5.55v-.97h4.96l-.6.48v-.48q0-1.14-.43-1.63-.42-.5-1.38-.5-.97 0-1.48.63-.5.61-.5 1.8v.23q0 1.45.57 2.1.56.67 1.77.67a5 5 0 0 0 2.3-.51v1.04q-.39.24-1.03.37-.64.15-1.4.14-1.7 0-2.58-.96"/><g clip-path="url(#b)"><rect width="447" height="51" x="16.5" y="92.5" stroke="#161513" stroke-opacity=".2" rx="3.5"/><path fill="#161513" d="M32.91 103.28h3.16q1.53 0 2.34.68t.8 1.98q0 1.1-.66 1.78-.65.66-1.85.82l.23-.68L39.6 112h-1.68l-2.32-3.74.82.57-2.72-.56.7-.39V112h-1.49zm2.6 4.15q1.22 0 1.71-.33.5-.33.5-1.14 0-.54-.22-.86a1.2 1.2 0 0 0-.69-.47 5 5 0 0 0-1.3-.14H34.4v2.94zm5.33 3.86q-.81-.86-.81-2.48 0-1.56.79-2.4a3 3 0 0 1 2.2-.85q1.33 0 2 .74.68.74.68 2.15v.81h-4.85v-1.03h4.12l-.61.47v-.43q0-.81-.34-1.2-.33-.4-1-.41-.76 0-1.16.47t-.4 1.34v.33q0 1.13.46 1.65t1.47.52a5 5 0 0 0 2.01-.42v1.15q-.39.2-.96.32t-1.2.12q-1.57 0-2.4-.85m11.82 3.12h-1.47v-3.29l.03-.78v-3.1l.19.58a2 2 0 0 0-.73-.84 1.7 1.7 0 0 0-.96-.32q-.49 0-.83.26-.33.27-.5.76-.16.48-.16 1.18 0 1.05.37 1.6.38.57 1.1.57.63 0 1.1-.4.48-.39.65-1.08l.04 1.36a2.4 2.4 0 0 1-2.1 1.23q-1.24 0-1.95-.87a3.8 3.8 0 0 1-.7-2.43q0-1.56.71-2.42a2.4 2.4 0 0 1 1.97-.86q.7 0 1.28.34.58.36.97 1l-.26.02.28-1.23h.97zm7.22-2.41h-.98l-.3-1.43.44-.21q-.26.56-.65.97t-.88.61-1.05.2q-1.05 0-1.62-.66a3 3 0 0 1-.57-1.9v-3.9h1.47v3.85q0 .69.28 1.05.3.36.86.36.48 0 .9-.32a2 2 0 0 0 .63-.86v-4.07h1.47zm3.23 0h-1.46v-5.24l-.65-.47v-.6h2.11zm-1.68-8.78h1.68v1.2h-1.68zm3.36 2.47h.97l.36 1.57-.36-.04q.28-.75.79-1.15a2 2 0 0 1 1.49-.4q.1 0 .2.03v1.3h-.33q-.66 0-1.08.37-.44.34-.58.97V112h-1.46zm4.93 5.6q-.82-.86-.82-2.48 0-1.56.8-2.4a3 3 0 0 1 2.2-.85q1.32 0 2 .74t.68 2.15v.81h-4.85v-1.03h4.12l-.62.47v-.43q0-.81-.33-1.2-.34-.4-1.01-.41-.76 0-1.15.47-.4.47-.4 1.34v.33q0 1.13.46 1.65t1.46.52a5 5 0 0 0 2.02-.42v1.15q-.4.2-.96.32-.57.12-1.21.12-1.56 0-2.4-.85m11.81.71h-.97l-.31-1.4.31.07q-.34.7-.96 1.09-.6.39-1.3.38-1.26 0-1.98-.87a3.7 3.7 0 0 1-.7-2.41q0-1.56.7-2.43a2.4 2.4 0 0 1 1.97-.87q.58 0 1.1.25.54.24.9.7l.03 1.24q-.31-.54-.74-.81a2 2 0 0 0-.99-.28q-.48 0-.81.25-.33.26-.5.75-.18.48-.18 1.18 0 1.05.39 1.62.38.57 1.08.57.38 0 .72-.17t.6-.47.38-.7l-.19.65v-3.21l-.01-.61v-3.53h1.46zm10.17 2.41h-1.46v-3.29l.02-.78v-3.1l.2.58a2 2 0 0 0-.74-.84 1.7 1.7 0 0 0-.96-.32q-.48 0-.82.26-.32.27-.5.76-.16.48-.16 1.18 0 1.05.37 1.6.38.57 1.1.57.62 0 1.1-.4.47-.39.64-1.08l.05 1.36a2.4 2.4 0 0 1-2.11 1.23q-1.24 0-1.95-.87a3.8 3.8 0 0 1-.7-2.43q0-1.56.72-2.42a2.4 2.4 0 0 1 1.96-.86q.71 0 1.29.34.57.36.97 1l-.26.02.27-1.23h.97zm7.22-2.41h-.97l-.31-1.43.44-.21q-.24.56-.64.97-.39.4-.88.61-.5.2-1.06.2-1.04 0-1.62-.66a3 3 0 0 1-.56-1.9v-3.9h1.46v3.85q0 .69.3 1.05t.84.36q.48 0 .9-.32a2 2 0 0 0 .64-.86v-4.07h1.46zm6.6 0h-.97l-.3-1.3.28.02q-.32.67-.9 1.05-.6.37-1.34.37-.96 0-1.54-.54a2 2 0 0 1-.56-1.46q0-.66.32-1.13.33-.47.93-.72.6-.26 1.44-.26h1.79v.93h-1.62q-.72 0-1.1.27-.36.26-.36.79 0 .47.27.74a1 1 0 0 0 .74.27 1.7 1.7 0 0 0 1.2-.52q.25-.25.41-.6l-.07.53v-1.82l-.03-.27v-.62q0-.6-.28-.82t-.92-.21q-.45 0-1 .1-.54.12-1.14.34V106q.46-.2 1.08-.32t1.2-.12q1.23 0 1.84.55.63.54.63 1.6zm1.62-6.31h.97l.32 1.43-.35-.04q.28-.49.65-.83a2.8 2.8 0 0 1 1.88-.7q1.08 0 1.65.67.57.64.58 1.9V112h-1.47v-3.84q0-.7-.3-1.04-.28-.35-.88-.35-.52 0-.94.31-.42.3-.65.84V112h-1.46zm7.6 1.14h-1.1v-.73l1.13-.44.5-1.75h.93v1.78h1.36v1.14h-1.36v3.07q0 .5.23.72t.67.22a3 3 0 0 0 .53-.04v1.21a5 5 0 0 1-.89.06q-1 0-1.51-.51-.5-.52-.5-1.61zm5.75 5.17h-1.47v-5.24l-.65-.47v-.6h2.12zm-1.68-8.78h1.68v1.2h-1.68zm3.63 3.6h-1.1v-.72l1.13-.44.5-1.75h.93v1.78h1.36v1.14h-1.36v3.07q0 .5.23.72.22.22.67.22a3 3 0 0 0 .53-.04v1.21a5 5 0 0 1-.89.06q-1.01 0-1.51-.51-.5-.52-.5-1.61zm4.64 6.63q.55-.14.91-.33t.58-.46.37-.72l.07-.22.23-.52 1.52-5.51h1.46l-1.8 5.99a6 6 0 0 1-.65 1.54q-.39.6-.96.93t-1.42.5zm1.1-1.55-2.2-6.21h1.52l1.9 5.65-.06.56zm-94.15 8.63h5.84v1.23h-5.59l.88-.7-.64 5.1-.6-.38q.57-.42 1.34-.68a4.7 4.7 0 0 1 3.52.16q.82.44 1.3 1.24.45.8.46 1.9 0 1.17-.51 2.03-.49.85-1.43 1.31-.9.45-2.17.45-.9 0-1.68-.17a5 5 0 0 1-1.46-.55v-1.25a6.4 6.4 0 0 0 3.07.72q1.33 0 2.05-.68.74-.69.74-1.86 0-1.14-.66-1.74a2.5 2.5 0 0 0-1.78-.63 5.4 5.4 0 0 0-2.48.61l-.88-.69zm13.28-.16h1.48v11.39l-.96-1.09h6.66V132H47.3zM57.75 132h-1.44v-7.23l-.83-.53v-.6h2.27zm-1.77-11.58h1.76v1.3h-1.76zm4.45 4.41h-1.44v-.73l1.44-.48.57-2.28h.87v2.3h1.8v1.2h-1.8v4.6q0 .7.3 1.04t.88.34a4 4 0 0 0 .72-.07V132q-.22.05-.46.06l-.48.02q-1.24 0-1.83-.64-.57-.65-.57-1.98zm5.45 6.23q-1-1.14-1-3.32 0-2.1.96-3.18.97-1.1 2.78-1.09 1.76 0 2.62.96.87.95.87 2.9v.93h-6.47v-1.14h5.78l-.7.56v-.56q0-1.3-.5-1.89-.48-.57-1.6-.57-1.14 0-1.73.72a3.3 3.3 0 0 0-.57 2.1v.26q0 1.68.65 2.45.66.77 2.07.77a6 6 0 0 0 2.67-.6v1.22q-.45.27-1.2.44-.74.16-1.62.16-1.98 0-3-1.12m8.05-7.41h.98l.37 2.01H75q.38-.99 1.04-1.5a2.3 2.3 0 0 1 1.8-.51q.15 0 .26.03v1.26h-.36q-.92 0-1.52.52-.6.5-.84 1.48V132h-1.44zm10.76 7.85q-.91.68-2.53.68-.77 0-1.5-.16-.75-.17-1.25-.44v-1.21q.75.32 1.36.46t1.31.15q1.06 0 1.57-.3.51-.32.51-.95 0-.5-.3-.77-.3-.3-1.08-.5l-1.3-.35a4 4 0 0 1-1.69-.86 2 2 0 0 1-.53-1.43q0-1.09.85-1.7a4 4 0 0 1 2.32-.65q.8 0 1.46.13t1.13.35v1.22q-.62-.26-1.24-.37a6 6 0 0 0-1.25-.13q-.93 0-1.38.26a.9.9 0 0 0-.45.8q0 .45.28.72t.99.45l1.33.35q1.21.32 1.76.9.54.55.54 1.51 0 1.18-.91 1.84"/><rect width="448" height="52" x="16" y="172" fill="#fff" rx="4"/><rect width="447" height="51" x="16.5" y="172.5" stroke="#161513" stroke-opacity=".5" rx="3.5"/><path fill="#161513" d="M33 187.04q-.5-.58-.5-1.44 0-.76.39-1.32a2.5 2.5 0 0 1 1.11-.86 5 5 0 0 1 1.72-.3 6 6 0 0 1 2.36.5v1.32a7 7 0 0 0-2.35-.5q-.84 0-1.28.28a.9.9 0 0 0-.43.81q0 .4.3.66.33.25 1.16.55l.91.34q.81.29 1.29.65a2.1 2.1 0 0 1 .9 1.86q0 .8-.38 1.38-.37.57-1.11.89-.72.3-1.75.3-.5 0-1.02-.08-.53-.06-.99-.16-.45-.12-.74-.27v-1.33q.66.25 1.3.4.67.13 1.29.13.87 0 1.37-.33a1 1 0 0 0 .5-.88q0-.41-.31-.69t-1.16-.57l-.92-.34a4 4 0 0 1-1.65-1M45.39 192h-.97l-.31-1.43.44-.21q-.25.56-.65.97-.38.4-.87.61-.5.2-1.06.2-1.05 0-1.62-.66a3 3 0 0 1-.56-1.9v-3.9h1.46v3.85q0 .69.29 1.05.3.36.85.36.48 0 .9-.32a2 2 0 0 0 .64-.86v-4.07h1.46zm1.64-9.01h1.46v8.18l-.32-.42q.33.12.6.18t.65.06a2 2 0 0 0 1.04-.25q.43-.26.64-.74.21-.51.21-1.25 0-1.02-.37-1.56t-1.06-.54q-.46 0-.9.27-.44.29-.75.8l-.25-.8q.39-.66.97-1.02.57-.34 1.28-.34 1.23 0 1.9.82.67.84.67 2.38 0 1.05-.4 1.81t-1.16 1.17-1.8.4a7 7 0 0 1-2.41-.44zm8.65 9.01H54.2v-5.24l-.65-.47v-.6h2.1zM54 183.22h1.68v1.2H54zm3.35 2.47h.98l.32 1.43-.35-.04q.28-.49.65-.83a2.8 2.8 0 0 1 1.87-.7q1.08 0 1.66.67.57.64.57 1.9V192h-1.46v-3.84q0-.7-.3-1.04t-.89-.35q-.51 0-.93.31-.42.3-.65.84V192h-1.47zm6.27 0h1.55l1.9 5.48h-.68l1.9-5.48h1.5l-2.5 6.31h-1.2zm7.43 5.6q-.81-.86-.81-2.48 0-1.56.79-2.4a3 3 0 0 1 2.2-.85q1.33 0 2 .74.68.75.68 2.15v.81h-4.85v-1.03h4.12l-.61.47v-.43q0-.81-.34-1.2-.34-.4-1-.41-.77 0-1.16.47-.4.47-.4 1.34v.33q0 1.13.46 1.65t1.47.52a5 5 0 0 0 2.01-.42v1.15q-.39.2-.96.32t-1.21.12q-1.56 0-2.39-.85m6.14-5.6h.98l.32 1.43-.35-.04q.28-.49.65-.83a2.8 2.8 0 0 1 1.87-.7q1.08 0 1.66.67.57.64.57 1.9V192h-1.46v-3.84q0-.7-.3-1.04t-.89-.35q-.51 0-.93.31-.42.3-.65.84V192h-1.47zm7.6 1.14h-1.1v-.73l1.14-.44.5-1.75h.93v1.78h1.35v1.14h-1.35v3.07q0 .5.23.72.22.21.67.22a3 3 0 0 0 .53-.04v1.21a5 5 0 0 1-.9.06q-1 0-1.5-.51-.5-.52-.5-1.61zm4.46 4.44q-.8-.88-.8-2.43t.8-2.42q.82-.86 2.27-.86t2.27.86q.8.87.8 2.42t-.8 2.43-2.27.87-2.27-.87m3.46-.82q.4-.55.4-1.6 0-1.06-.4-1.6-.4-.55-1.2-.55-.76 0-1.18.55-.4.54-.4 1.6t.4 1.6 1.19.54 1.19-.54m3.21-4.76h.97l.36 1.57-.36-.04q.28-.75.8-1.15a2 2 0 0 1 1.48-.4q.1 0 .2.03v1.3h-.33q-.65 0-1.08.37-.43.34-.58.97V192h-1.46zm5.2 7.76q.55-.14.91-.33.37-.18.58-.46.23-.27.37-.72l.07-.22.23-.52 1.53-5.51h1.45l-1.8 5.99a6 6 0 0 1-.65 1.54q-.39.6-.96.93t-1.42.5zm1.1-1.55-2.2-6.21h1.52l1.9 5.65-.06.56zm-67.98 18.7q-1.4-1.59-1.4-4.54 0-1.83.65-3.15a5 5 0 0 1 1.9-2.01 6.3 6.3 0 0 1 4.45-.53q.78.19 1.28.53v1.28a10 10 0 0 0-1.46-.53 5 5 0 0 0-1.24-.16 3.8 3.8 0 0 0-3 1.2q-1.07 1.18-1.07 3.37 0 2.33 1.06 3.57a3.8 3.8 0 0 0 3 1.25q.75 0 1.51-.18.75-.17 1.62-.54v1.28q-.65.35-1.52.56-.87.2-1.76.2a5.1 5.1 0 0 1-4.02-1.6m8.85-.28h1.88V212H43.1zm9.1 1.07h-1.44v-10.37l.77 1.01-3.94 1.47v-.9l3.56-2.07h1.05zm2.69.61h-7.3v-1.23h7.3zm1.7-1.68h1.9V212h-1.9zm9.11 1.07h-1.44v-10.37l.77 1.01-3.94 1.47v-.9l3.56-2.07h1.05zm2.69.61h-7.3v-1.23h7.3z"/><rect width="448" height="52" x="16" y="252" fill="#fff" rx="4"/><rect width="447" height="51" x="16.5" y="252.5" stroke="#161513" stroke-opacity=".5" rx="3.5"/><path fill="#161513" d="M32.91 263.28h1.5v8.55l-.96-1.17h5.02V272H32.9zm7.15 7.99q-.8-.88-.8-2.43t.8-2.42q.81-.86 2.27-.86t2.26.86.8 2.42-.8 2.43-2.26.87-2.27-.87m3.45-.82q.42-.54.41-1.6 0-1.06-.4-1.6-.4-.55-1.2-.55-.77 0-1.18.55-.4.54-.4 1.6t.4 1.6 1.19.54 1.18-.54m3.2.2a4.5 4.5 0 0 1-.34-1.88q0-1 .37-1.73.38-.71 1.08-1.1a3.5 3.5 0 0 1 1.68-.38 4 4 0 0 1 1.63.33v1.15a3 3 0 0 0-1.38-.34q-.93 0-1.42.52t-.48 1.55q0 1.08.44 1.65.45.56 1.33.56.4 0 .8-.1.42-.1.9-.3v1.17q-.37.18-.87.29t-1.04.1q-.99 0-1.68-.37a2.5 2.5 0 0 1-1.02-1.13M57.48 272h-.97l-.29-1.3.28.02q-.33.67-.91 1.05-.6.37-1.34.37-.96 0-1.53-.54a2 2 0 0 1-.57-1.46q0-.66.33-1.13.32-.46.92-.72.62-.26 1.44-.26h1.8v.93H55q-.72 0-1.1.27-.35.26-.35.79 0 .47.26.74a1 1 0 0 0 .75.27 1.7 1.7 0 0 0 1.2-.52q.25-.26.4-.6l-.07.53v-1.82l-.02-.27v-.62q0-.6-.29-.82t-.91-.21q-.47 0-1 .1-.54.12-1.15.34V266q.47-.2 1.08-.32.63-.12 1.21-.12 1.21 0 1.84.55.62.54.62 1.6zm1.9-5.17h-1.1v-.73l1.13-.44.5-1.75h.93v1.78h1.36v1.14h-1.36v3.07q0 .5.23.72t.67.22a3 3 0 0 0 .53-.04v1.21a5 5 0 0 1-.89.06q-1 0-1.51-.51-.5-.52-.5-1.61zm4.45 4.44q-.8-.88-.8-2.43t.8-2.42q.82-.86 2.27-.86 1.47 0 2.27.86t.8 2.42-.8 2.43-2.27.87q-1.45 0-2.27-.87m3.46-.82q.4-.54.4-1.6t-.4-1.6-1.19-.55-1.19.55q-.4.54-.4 1.6t.4 1.6 1.2.54q.78 0 1.18-.54m3.21-4.76h.98l.36 1.57-.36-.04q.27-.75.79-1.15a2 2 0 0 1 1.49-.4q.1 0 .2.03v1.3h-.34q-.65 0-1.08.37-.43.34-.57.97V272H70.5zM38.2 291.4h-1.43v-10.38l.77 1.01-3.94 1.47v-.9l3.55-2.07h1.06zm2.7.6h-7.3v-1.23h7.3zm1.7-1.68h1.89V292H42.6zm9.1 1.07h-1.43v-10.37l.77 1.01-3.94 1.47v-.9l3.55-2.07h1.06zm2.7.61h-7.3v-1.23h7.3zm1.7-1.68H58V292h-1.9zm9.1 1.07h-1.43v-10.37l.77 1.01-3.94 1.47v-.9l3.55-2.07h1.06zm2.7.61h-7.3v-1.23h7.3z"/><rect width="448" height="52" x="16" y="332" fill="#fff" rx="4"/><rect width="447" height="51" x="16.5" y="332.5" stroke="#161513" stroke-opacity=".5" rx="3.5"/><g fill="#161513" clip-path="url(#c)"><path fill-opacity=".7" d="M28.91 352v-8.72h1.5v7.38h4.06V352zm6.83 0v-8.72h3q3.14 0 3.14 2.86 0 2.88-3.15 2.87h-1.5V352zm2.68-7.51h-1.19v3.31h1.19q1.03 0 1.49-.38.47-.4.47-1.28t-.47-1.27q-.45-.38-1.49-.38m4.7 7.51v-8.72h1.41l4.19 6.26v-6.26h1.49V352h-1.4l-4.2-6.25V352z"/><path d="M33.25 372v-9.68l-3.17 1.18v-.9l3.55-2.07h1.06V372zm5.42 0v-1l3.18-3.46q.92-1.02 1.49-1.73.57-.72.83-1.27.26-.56.26-1.02 0-1.94-2.24-1.94-1.5 0-3.14.92v-1.25q.63-.42 1.5-.66a6 6 0 0 1 1.72-.25q1.71 0 2.64.81t.94 2.32q0 .93-.69 2.03a21 21 0 0 1-2.2 2.74l-2.36 2.53h5.28V372zm9.64-.53v-1.25q1.39.72 3.09.72 1.37 0 2.14-.67.78-.67.78-1.87 0-1-.62-1.6-.63-.6-1.71-.6a5 5 0 0 0-1.86.31l-.51-.85 3.71-3.9h-4.91v-1.23h6.8v.91l-3.52 3.71.45-.03q1.66 0 2.6.9.95.88.95 2.38 0 1.8-1.12 2.8t-3.12 1a6.3 6.3 0 0 1-3.15-.73m8.8-2.14v-1.07l5.98-7.73h1.3v7.57h1.53v1.23h-1.54V372h-1.44v-2.67zm1.66-1.23h4.2v-5.41zm8.88 3.37v-1.25a6.4 6.4 0 0 0 3.08.72q1.32 0 2.05-.68t.73-1.86q0-1.14-.66-1.74a2.5 2.5 0 0 0-1.77-.63 5.4 5.4 0 0 0-2.48.61l-.88-.69.67-5.42h5.84v1.23h-4.8l-.45 3.6q.5-.26 1.06-.38a4.7 4.7 0 0 1 3.1.28q.84.44 1.3 1.24.45.8.46 1.9 0 1.17-.5 2.03t-1.43 1.31-2.18.45q-.89 0-1.68-.17a5 5 0 0 1-1.45-.55"/></g><path fill="#161513" d="M429 348h-1v4h2v-2h2v-2zm15 2h2v2h2v-4h-4zm-14 14v2h2v2h-4v-4zm16 0v2h-2v2h4v-4zm-13-11v10h-2v-10zm4 10v-10h2v10zm8-10v10h-2v-10zm-10 0v10h-1v-10zm5 10v-10h1v10z"/><path fill="#161513" fill-opacity=".7" d="M416.18 398v-8.72h2.96q3.03 0 3.04 2.56 0 2-2.05 2.48l2.43 3.68h-1.27l-2.21-3.46-1.8-.28V398zm1.1-4.49h1.33q1.35 0 1.9-.37.55-.39.55-1.3 0-.62-.23-.98-.22-.37-.77-.53a5 5 0 0 0-1.45-.17h-1.33zm10.9 4.18q-.35.2-.9.32t-1.21.12q-1.5 0-2.26-.84-.75-.86-.75-2.48 0-1.58.71-2.39.74-.81 2.1-.82 2.6 0 2.6 2.9v.7h-4.32q.07 1.05.56 1.54.5.48 1.47.48a5 5 0 0 0 2-.44zm-2.32-5.2q-.8 0-1.23.48-.44.47-.48 1.37h3.29q0-.99-.38-1.42-.36-.42-1.2-.43m8.3 7.92v-3.19a2.6 2.6 0 0 1-1.96.91q-1.24 0-1.93-.86a3.7 3.7 0 0 1-.7-2.38q0-1.56.7-2.42a2.4 2.4 0 0 1 1.95-.87q1.26 0 2.13 1.06l.16-.92h.74v8.67zm-3.49-5.53a3 3 0 0 0 .45 1.76q.44.62 1.26.62.58 0 1.05-.32.48-.3.74-.84v-2.64q-.34-.45-.82-.7a2 2 0 0 0-.94-.28q-.84 0-1.3.64a3 3 0 0 0-.44 1.76m6.31.73v-3.87h1.08v3.84q0 .8.35 1.23t1.02.43q.57 0 1.06-.38.5-.4.75-1.04v-4.08h1.08V398h-.73l-.19-1.07a2.7 2.7 0 0 1-2.23 1.2q-1.05 0-1.62-.65-.56-.64-.56-1.87m6.99-5.33v-.97h1.32v.97zm.25 7.72v-5.42l-.62-.4v-.44h1.7V398zm2.88 0v-6.26h.73l.22 1.17q.6-1.19 1.75-1.19.24 0 .42.04v.95h-.28q-.67 0-1.14.38-.44.39-.62 1.12V398zm8.93-.31q-.33.2-.9.32-.55.12-1.2.12-1.5 0-2.26-.84-.75-.86-.76-2.48 0-1.58.72-2.39.73-.81 2.09-.82 2.61 0 2.61 2.9v.7H452q.07 1.05.57 1.54.48.48 1.46.48a5 5 0 0 0 2-.44zm-2.31-5.2q-.8 0-1.24.48-.44.47-.48 1.37h3.29q0-.99-.37-1.42-.36-.42-1.2-.43m8.65 5.51-.18-1a2.5 2.5 0 0 1-2.12 1.13q-1.25 0-1.95-.86a3.7 3.7 0 0 1-.7-2.39q0-1.55.7-2.41a2.4 2.4 0 0 1 1.97-.87q.53 0 1.03.2.51.22.9.58v-3.4h1.08V398zm-3.84-3.13a3 3 0 0 0 .44 1.76q.45.63 1.26.63.56 0 1.04-.3.48-.32.75-.84v-2.79a2.2 2.2 0 0 0-1.74-.85q-.84 0-1.3.61-.45.61-.45 1.78"/><rect width="448" height="52" x="16" y="410" fill="#fff" rx="4"/><rect width="447" height="51" x="16.5" y="410.5" stroke="#161513" stroke-opacity=".5" rx="3.5"/><g fill="#161513" clip-path="url(#d)"><path fill-opacity=".7" d="M28.91 430v-8.72h1.5v7.38h4.06V430zm9.47.13q-1.45 0-2.26-.86a3.4 3.4 0 0 1-.8-2.43q0-1.56.8-2.42.81-.87 2.26-.86 1.47 0 2.27.86t.8 2.42-.8 2.43-2.27.86m0-1.14q1.6 0 1.6-2.15t-1.6-2.14-1.6 2.14 1.6 2.15m4.65-1.04v-3.12h-1.1v-.73l1.13-.44.5-1.75h.93v1.78h1.36v1.14h-1.36v3.1q0 .51.23.74.22.21.67.21h.28l.25-.02v1.15a5 5 0 0 1-.88.06q-1.02 0-1.52-.51-.5-.52-.5-1.61m7.13 2.05v-6.31h.97l.21 1.02a2.7 2.7 0 0 1 2.27-1.15q1.1 0 1.67.66.58.64.58 1.9V430h-1.47v-3.84q0-1.4-1.19-1.4-.51 0-.94.32-.42.3-.64.84V430zm7.28-2.42v-3.9h1.47v3.85q0 1.4 1.1 1.39.5 0 .91-.31.44-.31.65-.84v-4.08h1.47V430h-.98l-.22-1.02a2.8 2.8 0 0 1-2.21 1.15q-1.06 0-1.62-.66a2.8 2.8 0 0 1-.57-1.9m7.27 2.42v-6.31h.97l.22.98a2.6 2.6 0 0 1 2.08-1.11q1.34 0 1.84 1.1.36-.51.92-.8.54-.3 1.2-.3 1.02 0 1.57.66.55.64.55 1.9V430H72.6v-3.84q0-1.4-1.08-1.4-.5 0-.88.3-.36.3-.53.82V430h-1.44v-3.84q0-1.4-1.1-1.4-.48 0-.85.32-.37.3-.54.84V430zm10.95-.3v-8.71h1.46v3.26q.73-.7 1.73-.7 1.25 0 1.9.83.68.84.68 2.38 0 1.58-.9 2.48t-2.46.9a7 7 0 0 1-2.41-.44m2.85-5.05q-.8 0-1.4.72v3.5q.42.13.93.13 1.91 0 1.91-2.25 0-1.02-.37-1.56t-1.07-.54m9.24 5.05q-.39.2-.96.32t-1.2.12q-1.56 0-2.39-.85-.81-.86-.81-2.48 0-1.56.78-2.4a3 3 0 0 1 2.22-.85q1.32 0 1.99.75t.67 2.14v.81h-4.21q.07.9.54 1.31.47.4 1.35.41a5 5 0 0 0 2.02-.43zm-2.38-5.04q-1.44 0-1.54 1.57h2.88q-.02-1.57-1.34-1.57m3.96 5.34v-6.31h.97l.23 1.04q.3-.5.76-.78.45-.29 1.07-.29.22 0 .42.04v1.3h-.35q-.66 0-1.08.38a1.7 1.7 0 0 0-.55.96V430z"/><path d="M29.3 450v-11.63h1.48v10.3h5.7V450zm8.98 0v-11.63h1.4l6.2 9.18v-9.18h1.47V450h-1.4l-6.2-9.18V450zm15.6 0v-9.68l-3.16 1.18v-.9l3.55-2.07h1.06V450zm5.43 0v-1l3.18-3.46q.92-1.02 1.49-1.73.57-.72.83-1.27.26-.56.26-1.02 0-1.94-2.24-1.94-1.5 0-3.14.92v-1.25q.63-.42 1.5-.66a6 6 0 0 1 1.72-.25q1.71 0 2.64.81t.94 2.32q0 .93-.69 2.03a21 21 0 0 1-2.2 2.74l-2.36 2.53h5.28V450zm9.64-.53v-1.25q1.4.72 3.09.72 1.37 0 2.14-.67.78-.67.78-1.87 0-1-.62-1.6-.63-.6-1.71-.6a5 5 0 0 0-1.86.31l-.51-.85 3.71-3.9h-4.91v-1.23h6.8v.91l-3.52 3.71.45-.03q1.66 0 2.6.9.95.88.95 2.38 0 1.8-1.12 2.8t-3.12 1a6.3 6.3 0 0 1-3.15-.73m8.62.53 4.5-11.63h1.48L88.06 450h-1.65l-1.02-2.86h-5.2L79.17 450zm3.08-4.14h4.28l-2.15-5.94zM89.5 450v-11.63h3.73q2.1 0 3.07.77.98.75.98 2.38 0 .8-.44 1.4-.42.6-1.21.95 2.14.6 2.14 2.83 0 3.3-4.4 3.3zm1.42-6.6h2.04q1.5 0 2.17-.42.67-.44.67-1.46 0-1.07-.65-1.5-.66-.45-2.2-.45h-2.03zm0 5.38h2.26q1.7 0 2.4-.46.7-.48.7-1.6 0-1.14-.72-1.62t-2.38-.48h-2.26zm16.91-.62v1.28q-.63.35-1.52.56a8 8 0 0 1-1.76.2 5.1 5.1 0 0 1-4.01-1.6q-1.41-1.59-1.41-4.54 0-1.83.65-3.15a5 5 0 0 1 1.9-2.01 6.3 6.3 0 0 1 4.45-.53q.8.19 1.29.53v1.28a10 10 0 0 0-1.46-.53 5 5 0 0 0-1.25-.16 3.8 3.8 0 0 0-2.99 1.2q-1.07 1.18-1.07 3.37 0 2.32 1.05 3.57a3.8 3.8 0 0 0 3.01 1.25q1.44 0 3.12-.72"/></g><path fill="#161513" d="M429 426h-1v4h2v-2h2v-2zm15 2h2v2h2v-4h-4zm-14 14v2h2v2h-4v-4zm16 0v2h-2v2h4v-4zm-13-11v10h-2v-10zm4 10v-10h2v10zm8-10v10h-2v-10zm-10 0v10h-1v-10zm5 10v-10h1v10z"/><path fill="#161513" fill-opacity=".7" d="M416.18 476v-8.72h2.96q3.03 0 3.04 2.56 0 2-2.05 2.48l2.43 3.68h-1.27l-2.21-3.46-1.8-.28V476zm1.1-4.49h1.33q1.35 0 1.9-.37.55-.39.55-1.3 0-.62-.23-.98-.22-.37-.77-.53a5 5 0 0 0-1.45-.17h-1.33zm10.9 4.18q-.35.2-.9.32t-1.21.12q-1.5 0-2.26-.84-.75-.86-.75-2.48 0-1.58.71-2.39.74-.81 2.1-.82 2.6 0 2.6 2.9v.7h-4.32q.07 1.05.56 1.54.5.48 1.47.48a5 5 0 0 0 2-.44zm-2.32-5.2q-.8 0-1.23.48-.44.47-.48 1.37h3.29q0-.99-.38-1.42-.36-.42-1.2-.43m8.3 7.92v-3.19a2.6 2.6 0 0 1-1.96.91q-1.24 0-1.93-.86a3.7 3.7 0 0 1-.7-2.38q0-1.56.7-2.42a2.4 2.4 0 0 1 1.95-.87q1.26 0 2.13 1.06l.16-.92h.74v8.67zm-3.49-5.53a3 3 0 0 0 .45 1.76q.44.62 1.26.62.58 0 1.05-.32.48-.3.74-.84v-2.64q-.34-.45-.82-.7a2 2 0 0 0-.94-.28q-.84 0-1.3.64a3 3 0 0 0-.44 1.76m6.31.73v-3.87h1.08v3.84q0 .8.35 1.23t1.02.43q.57 0 1.06-.38.5-.4.75-1.04v-4.08h1.08V476h-.73l-.19-1.07a2.7 2.7 0 0 1-2.23 1.2q-1.05 0-1.62-.65-.56-.64-.56-1.87m6.99-5.33v-.97h1.32v.97zm.25 7.72v-5.42l-.62-.4v-.44h1.7V476zm2.88 0v-6.26h.73l.22 1.17q.6-1.19 1.75-1.19.24 0 .42.04v.95h-.28q-.67 0-1.14.38-.44.39-.62 1.12V476zm8.93-.31q-.33.2-.9.32-.55.12-1.2.12-1.5 0-2.26-.84-.75-.86-.76-2.48 0-1.58.72-2.39.73-.81 2.09-.82 2.61 0 2.61 2.9v.7H452q.07 1.05.57 1.54.48.48 1.46.48a5 5 0 0 0 2-.44zm-2.31-5.2q-.8 0-1.24.48-.44.47-.48 1.37h3.29q0-.99-.37-1.42-.36-.42-1.2-.43m8.65 5.51-.18-1a2.5 2.5 0 0 1-2.12 1.13q-1.25 0-1.95-.86a3.7 3.7 0 0 1-.7-2.39q0-1.55.7-2.41a2.4 2.4 0 0 1 1.97-.87q.53 0 1.03.2.51.22.9.58v-3.4h1.08V476zm-3.84-3.13a3 3 0 0 0 .44 1.76q.45.63 1.26.63.56 0 1.04-.3.48-.32.75-.84v-2.79a2.2 2.2 0 0 0-1.74-.85q-.84 0-1.3.61-.45.61-.45 1.78"/><rect width="448" height="52" x="16" y="488" fill="#fff" rx="4"/><rect width="447" height="51" x="16.5" y="488.5" stroke="#161513" stroke-opacity=".5" rx="3.5"/><g fill="#161513" clip-path="url(#e)"><path fill-opacity=".7" d="M28.61 507.65v-1.33q1.34.53 2.6.53.87 0 1.36-.33a1 1 0 0 0 .5-.88q0-.42-.3-.69-.32-.27-1.17-.57l-.91-.34a4 4 0 0 1-1.67-1q-.5-.6-.5-1.44 0-1.15.87-1.8a3.7 3.7 0 0 1 2.35-.68 6 6 0 0 1 2.36.5v1.32a6 6 0 0 0-2.34-.51q-1.72 0-1.72 1.1 0 .4.31.65.31.26 1.14.56l.93.34q1.2.45 1.69 1.02.5.57.49 1.49 0 1.2-.85 1.88-.86.69-2.39.69-.5 0-1.02-.08-.52-.06-.97-.16a4 4 0 0 1-.76-.27m12.24.05q-.39.2-.96.32t-1.2.12q-1.55 0-2.39-.85-.81-.86-.81-2.48 0-1.56.78-2.4a3 3 0 0 1 2.22-.85q1.32 0 1.99.75t.67 2.14v.81h-4.21q.09.9.54 1.31.46.4 1.36.41a5 5 0 0 0 2.01-.43zm-2.37-5.04q-1.44 0-1.55 1.57h2.88q-.01-1.57-1.33-1.57m3.95 5.34v-6.31h.98l.22 1.04q.3-.5.76-.78.45-.29 1.07-.29.23 0 .42.04v1.3h-.35q-.66 0-1.08.38a1.7 1.7 0 0 0-.55.96V508zm4.68-7.58v-1.2h1.66v1.2zm.21 7.58v-5.24l-.63-.47v-.6h2.1V508zm7.09 0-.2-.94q-.36.53-.88.8-.53.29-1.16.28-.98 0-1.55-.54a2 2 0 0 1-.57-1.46q0-.99.72-1.55a3 3 0 0 1 1.97-.56h1.19v-.3q0-.6-.25-.82-.26-.21-.9-.21-.93 0-2.15.44V502a6 6 0 0 1 2.3-.44q2.45 0 2.45 2.16V508zm-1.94-.96q.44 0 .84-.23t.64-.66v-1.19h-1.04q-1.45 0-1.45 1.06 0 .48.26.76a1 1 0 0 0 .75.26M57 508v-7.94l-.63-.47v-.6h2.1V508zm6.08 0v-6.31h.98l.21 1.02a2.7 2.7 0 0 1 2.27-1.15q1.09 0 1.67.66.57.64.57 1.9V508h-1.46v-3.84q0-1.4-1.19-1.4-.51 0-.95.32-.42.3-.63.84V508zm7.3-2.42v-3.9h1.46v3.85q0 1.4 1.1 1.39.5 0 .91-.31.43-.31.65-.84v-4.08h1.46V508H75l-.23-1.02a2.8 2.8 0 0 1-2.2 1.15q-1.06 0-1.62-.66a2.8 2.8 0 0 1-.57-1.9m7.26 2.42v-6.31h.97l.22.98a2.6 2.6 0 0 1 2.07-1.11q1.35 0 1.85 1.1.36-.51.91-.8.56-.3 1.2-.3 1.04 0 1.57.66.56.64.56 1.9V508h-1.47v-3.84q0-1.4-1.08-1.4-.5 0-.87.3-.36.3-.53.82V508H81.6v-3.84q0-1.4-1.1-1.4-.47 0-.86.32-.37.3-.54.84V508zm10.94-.3v-8.71h1.47v3.26q.73-.7 1.73-.7 1.24 0 1.9.83.68.84.68 2.38 0 1.58-.9 2.48t-2.46.9a7 7 0 0 1-2.42-.44m2.86-5.05q-.8 0-1.4.72v3.5q.42.13.93.13 1.9 0 1.9-2.25 0-1.02-.36-1.56-.37-.54-1.07-.54m9.24 5.05q-.4.2-.96.32-.57.12-1.2.12-1.56 0-2.39-.85-.81-.86-.82-2.48 0-1.56.78-2.4a3 3 0 0 1 2.22-.85q1.32 0 2 .75t.67 2.14v.81h-4.21q.07.9.54 1.31.46.4 1.35.41a5 5 0 0 0 2.02-.43zm-2.38-5.04q-1.44 0-1.55 1.57h2.88q0-1.57-1.33-1.57m3.96 5.34v-6.31h.97l.23 1.04q.3-.5.76-.78.45-.29 1.06-.29.24 0 .42.04v1.3h-.34q-.66 0-1.08.38a1.7 1.7 0 0 0-.56.96V508z"/><path d="M28.8 527.49v-1.31q1.76.72 3.36.72 1.35 0 2.1-.53.76-.53.76-1.46 0-.69-.46-1.13-.46-.45-1.68-.92l-1.23-.48a6 6 0 0 1-2.24-1.34 2.6 2.6 0 0 1-.67-1.76q0-1.44 1.08-2.27a4.8 4.8 0 0 1 2.98-.83 7 7 0 0 1 3.04.68v1.32a8 8 0 0 0-3-.7q-2.62 0-2.62 1.77 0 .6.47 1 .46.42 1.63.89l1.23.48a6 6 0 0 1 2.27 1.4q.7.77.7 1.86 0 1.56-1.13 2.45-1.1.86-3.1.86a9 9 0 0 1-3.49-.7m9.62.51v-11.63h7.02v1.28h-5.53v4.06h4.98V523H39.9v5zm8.94 0v-11.63h1.49v5h6.12v-5h1.5V528h-1.5v-5.34h-6.12V528zm10.95-.43v-1.35q.6.3 1.28.47t1.2.17q2.03 0 2.03-2.04v-7.1l-2.32-.47v-.88h3.81v8.53q0 1.53-.9 2.41-.87.88-2.48.88a6 6 0 0 1-2.62-.62m8.44.43v-11.63h1.49v10.3h5.7V528zm8.98 0v-11.63h1.5v5.3l5.2-5.3h1.8l-5.31 5.31 5.63 6.32h-1.86l-4.7-5.33h-.77V528zm10.16-.53v-1.25a6.4 6.4 0 0 0 3.07.72q1.33 0 2.05-.68.74-.69.74-1.86 0-1.14-.66-1.74a2.5 2.5 0 0 0-1.78-.63 5.4 5.4 0 0 0-2.48.61l-.88-.69.68-5.42h5.84v1.23h-4.8l-.45 3.6q.5-.26 1.05-.38a4.7 4.7 0 0 1 3.1.28q.84.44 1.3 1.24t.47 1.9q0 1.17-.51 2.03-.5.85-1.43 1.31-.9.45-2.17.45-.9 0-1.68-.17a5 5 0 0 1-1.46-.55"/></g><path fill="#161513" d="M429 504h-1v4h2v-2h2v-2zm15 2h2v2h2v-4h-4zm-14 14v2h2v2h-4v-4zm16 0v2h-2v2h4v-4zm-13-11v10h-2v-10zm4 10v-10h2v10zm8-10v10h-2v-10zm-10 0v10h-1v-10zm5 10v-10h1v10z"/><path fill="#161513" fill-opacity=".7" d="M416.18 554v-8.72h2.96q3.03 0 3.04 2.56 0 2-2.05 2.48l2.43 3.68h-1.27l-2.21-3.46-1.8-.28V554zm1.1-4.49h1.33q1.35 0 1.9-.37.55-.39.55-1.3 0-.62-.23-.98-.22-.37-.77-.53a5 5 0 0 0-1.45-.17h-1.33zm10.9 4.18q-.35.2-.9.32t-1.21.12q-1.5 0-2.26-.84-.75-.86-.75-2.48 0-1.58.71-2.39.74-.82 2.1-.82 2.6 0 2.6 2.9v.7h-4.32q.07 1.05.56 1.54.5.48 1.47.48a5 5 0 0 0 2-.44zm-2.32-5.2q-.8 0-1.23.48-.44.47-.48 1.37h3.29q0-.99-.38-1.42-.36-.42-1.2-.43m8.3 7.92v-3.19a2.6 2.6 0 0 1-1.96.91q-1.24 0-1.93-.86a3.7 3.7 0 0 1-.7-2.38q0-1.56.7-2.42a2.4 2.4 0 0 1 1.95-.87q1.26 0 2.13 1.06l.16-.92h.74v8.67zm-3.49-5.53a3 3 0 0 0 .45 1.76q.44.62 1.26.62.58 0 1.05-.32.48-.3.74-.84v-2.64q-.34-.45-.82-.7a2 2 0 0 0-.94-.28q-.84 0-1.3.64a3 3 0 0 0-.44 1.76m6.31.73v-3.87h1.08v3.84q0 .8.35 1.23t1.02.43q.57 0 1.06-.38.5-.4.75-1.04v-4.08h1.08V554h-.73l-.19-1.07a2.7 2.7 0 0 1-2.23 1.2q-1.05 0-1.62-.65-.56-.64-.56-1.87m6.99-5.33v-.97h1.32v.97zm.25 7.72v-5.42l-.62-.4v-.44h1.7V554zm2.88 0v-6.26h.73l.22 1.17q.6-1.19 1.75-1.19.24 0 .42.04v.95h-.28q-.67 0-1.14.38-.44.39-.62 1.12V554zm8.93-.31q-.33.2-.9.32-.55.12-1.2.12-1.5 0-2.26-.84-.75-.86-.76-2.48 0-1.58.72-2.39.73-.82 2.09-.82 2.61 0 2.61 2.9v.7H452q.07 1.05.57 1.54.48.48 1.46.48a5 5 0 0 0 2-.44zm-2.31-5.2q-.8 0-1.24.48-.44.47-.48 1.37h3.29q0-.99-.37-1.42-.36-.42-1.2-.43m8.65 5.51-.18-1a2.5 2.5 0 0 1-2.12 1.13q-1.25 0-1.95-.86a3.7 3.7 0 0 1-.7-2.39q0-1.55.7-2.41a2.4 2.4 0 0 1 1.97-.87q.53 0 1.03.2.51.22.9.58v-3.4h1.08V554zm-3.84-3.13a3 3 0 0 0 .44 1.76q.45.63 1.26.63.56 0 1.04-.3.48-.32.75-.84v-2.79a2.2 2.2 0 0 0-1.74-.85q-.84 0-1.3.61-.45.61-.45 1.78"/><rect width="448" height="52" x="16" y="566" fill="#fff" rx="4"/><rect width="447" height="51" x="16.5" y="566.5" stroke="#161513" stroke-opacity=".5" rx="3.5"/><path fill="#161513" d="M33.46 584.8a5 5 0 0 1-.87-3.17q0-1.44.45-2.45a3.4 3.4 0 0 1 1.36-1.53q.9-.53 2.17-.53 1.28 0 2.15.53.89.52 1.36 1.53.45 1.02.46 2.45 0 1.96-.84 3.09a3.7 3.7 0 0 1-2.46 1.36v-.3l3.52.77-.17.91-4.95-.67.18-.93.19.27a3.5 3.5 0 0 1-2.55-1.33m5.54-3.17q0-1.05-.28-1.76a2 2 0 0 0-.8-1.08q-.54-.37-1.35-.37t-1.35.37-.82 1.08a5 5 0 0 0-.28 1.76q0 1.12.28 1.86.27.75.82 1.12.53.36 1.35.36.81 0 1.35-.36.53-.37.8-1.12.27-.74.28-1.86m8.5 4.37h-.97l-.31-1.43.44-.21q-.25.56-.65.97-.37.4-.87.61t-1.06.2q-1.04 0-1.62-.66a3 3 0 0 1-.56-1.9v-3.9h1.46v3.85q0 .69.3 1.05t.84.36q.48 0 .9-.32a2 2 0 0 0 .64-.86v-4.07h1.46zm6.6 0h-.97l-.3-1.3.28.02q-.32.67-.9 1.05-.6.37-1.34.37-.96 0-1.54-.54a2 2 0 0 1-.56-1.46q0-.66.32-1.13.33-.46.93-.72t1.44-.26h1.79v.93h-1.62q-.72 0-1.1.27-.36.26-.36.79 0 .47.27.74a1 1 0 0 0 .74.27 1.7 1.7 0 0 0 1.2-.52q.25-.25.41-.6l-.07.53v-1.82l-.03-.27v-.62q0-.6-.28-.82t-.92-.21q-.45 0-1 .1-.54.12-1.14.34V580q.46-.2 1.08-.32t1.2-.12q1.23 0 1.84.55.63.55.63 1.6zm1.62-6.31h.97l.32 1.43-.35-.04q.28-.49.65-.83a2.8 2.8 0 0 1 1.87-.7q1.09 0 1.66.67.58.64.58 1.9V586h-1.47v-3.84q0-.7-.3-1.04-.29-.36-.89-.35-.51 0-.93.31-.42.3-.65.84V586h-1.46zm7.6 1.14h-1.1v-.73l1.13-.44.5-1.75h.93v1.78h1.36v1.14h-1.36v3.07q0 .5.23.72.22.21.67.22a3 3 0 0 0 .53-.04v1.21a5 5 0 0 1-.89.06q-1.01 0-1.51-.51-.5-.52-.5-1.61zm5.75 5.17H67.6v-5.24l-.65-.47v-.6h2.12zm-1.68-8.78h1.68v1.2H67.4zm3.63 3.6h-1.1v-.72l1.13-.44.5-1.75h.93v1.78h1.36v1.14h-1.36v3.07q0 .5.23.72.22.21.67.22a3 3 0 0 0 .53-.04v1.21a5 5 0 0 1-.89.06q-1.01 0-1.51-.51-.5-.52-.5-1.61zm4.64 6.63q.55-.14.91-.33.36-.18.58-.46.22-.27.37-.72l.07-.22.23-.52 1.52-5.51h1.46l-1.8 5.99a6 6 0 0 1-.65 1.54q-.39.6-.96.93t-1.42.5zm1.1-1.55-2.2-6.21h1.52l1.9 5.65-.06.56zm8.25-5.07h-1.1v-.73l1.13-.44.5-1.75h.93v1.78h1.36v1.14h-1.36v3.07q0 .5.23.72t.67.22a3 3 0 0 0 .53-.04v1.21a5 5 0 0 1-.89.06q-1 0-1.51-.51-.5-.52-.5-1.61zm4.46 4.44q-.8-.88-.8-2.43t.8-2.42q.82-.87 2.26-.86 1.47 0 2.27.86.8.87.8 2.42t-.8 2.43-2.27.87-2.26-.87m3.45-.82q.4-.55.4-1.6 0-1.06-.4-1.6-.4-.55-1.19-.55t-1.18.55-.4 1.6.4 1.6 1.18.54q.8 0 1.2-.54m9.89 1.55h-1.5v-7.85l.49.41h-3.17v-1.28h6.85v1.28h-3.13l.46-.46zm3.08-6.31h.97l.36 1.57-.36-.04q.27-.75.79-1.15a2 2 0 0 1 1.49-.4q.1 0 .2.03v1.3h-.33q-.66 0-1.08.37-.44.34-.58.97V586h-1.47zm9.37 6.31h-.97l-.3-1.3.28.02q-.32.67-.9 1.05-.6.37-1.34.37-.96 0-1.54-.54a2 2 0 0 1-.56-1.46q0-.66.32-1.13.33-.46.93-.72t1.44-.26h1.79v.93h-1.62q-.72 0-1.1.27-.36.26-.36.79 0 .47.27.74a1 1 0 0 0 .74.27 1.7 1.7 0 0 0 1.2-.52q.25-.25.41-.6l-.07.53v-1.82l-.03-.27v-.62q0-.6-.28-.82t-.92-.21q-.45 0-1 .1-.54.12-1.14.34V580q.46-.2 1.08-.32t1.2-.12q1.23 0 1.84.55.63.55.63 1.6zm1.62-6.31h.97l.32 1.43-.35-.04q.28-.49.65-.83a2.8 2.8 0 0 1 1.88-.7q1.08 0 1.65.67.57.64.58 1.9V586h-1.47v-3.84q0-.7-.3-1.04-.28-.36-.88-.35-.52 0-.94.31-.42.3-.65.84V586h-1.46zm11.14 5.94q-.7.51-1.98.51-.6 0-1.18-.12-.6-.12-.96-.3v-1.2q.6.24 1.08.34t1 .1q.67 0 .98-.17a.6.6 0 0 0 .31-.55.5.5 0 0 0-.21-.45 2 2 0 0 0-.72-.32l-.94-.25a3 3 0 0 1-1.23-.66q-.4-.44-.4-1.1 0-.89.68-1.39a3 3 0 0 1 1.86-.51 6 6 0 0 1 2 .36v1.17a5 5 0 0 0-1.94-.37q-.6 0-.89.16-.27.14-.27.48 0 .24.2.4.2.18.69.3l.93.27q.91.25 1.3.67.38.4.38 1.16 0 .95-.7 1.47m6.91.37h-.97l-.29-1.3.28.02q-.33.67-.91 1.05-.6.37-1.33.37-.97 0-1.54-.54a2 2 0 0 1-.56-1.46q0-.66.32-1.13t.92-.72q.62-.26 1.44-.26h1.8v.93h-1.63q-.72 0-1.09.27-.36.26-.36.79 0 .47.26.74a1 1 0 0 0 .75.27 1.7 1.7 0 0 0 1.2-.52q.25-.25.4-.6l-.07.53v-1.82l-.02-.27v-.62q0-.6-.29-.82t-.91-.21q-.47 0-1 .1-.54.12-1.15.34V580q.46-.2 1.08-.32t1.21-.12q1.21 0 1.84.55t.62 1.6zm1.61-1.36a4.5 4.5 0 0 1-.35-1.87q0-1 .38-1.73.38-.72 1.07-1.1a3.5 3.5 0 0 1 1.69-.38 4 4 0 0 1 1.63.33v1.15a3 3 0 0 0-1.38-.34q-.94 0-1.42.52t-.48 1.55q0 1.08.43 1.65.44.56 1.34.56.4 0 .8-.1.42-.1.89-.3v1.17q-.36.18-.87.29-.48.1-1.03.1-.99 0-1.68-.37a2.5 2.5 0 0 1-1.02-1.13m6.36-3.81h-1.1v-.73l1.13-.44.5-1.75h.93v1.78h1.36v1.14h-1.36v3.07q0 .5.23.72t.67.22a3 3 0 0 0 .53-.04v1.21a5 5 0 0 1-.89.06q-1 0-1.5-.51-.5-.52-.5-1.61zm-108.88 13.7h5.84v1.23h-5.59l.88-.7-.64 5.1-.6-.38q.57-.41 1.34-.68a4.7 4.7 0 0 1 3.52.16q.82.44 1.3 1.24.45.8.46 1.9 0 1.17-.51 2.03-.49.85-1.43 1.31-.9.45-2.17.45-.9 0-1.68-.17a5 5 0 0 1-1.46-.55v-1.25a6.4 6.4 0 0 0 3.07.72q1.33 0 2.05-.68.74-.69.74-1.86 0-1.14-.66-1.74a2.5 2.5 0 0 0-1.78-.63 5.4 5.4 0 0 0-2.48.61l-.88-.69zm374.28-.16h1.48v11.39l-.96-1.09h6.66V606h-7.18zM418.75 606h-1.44v-7.23l-.83-.53v-.6h2.27zm-1.77-11.58h1.76v1.3h-1.76zm4.44 4.41h-1.44v-.73l1.44-.48.58-2.28h.87v2.3h1.8v1.2h-1.8v4.6q0 .7.3 1.04t.88.34a4 4 0 0 0 .72-.07V606q-.22.04-.46.06-.22.03-.49.02-1.23 0-1.82-.64-.57-.64-.57-1.98zm5.46 6.23q-1-1.13-1-3.32 0-2.1.95-3.18.98-1.09 2.79-1.09 1.76 0 2.62.96.87.95.87 2.9v.93h-6.47v-1.14h5.78l-.7.56v-.56q0-1.3-.5-1.89-.48-.57-1.6-.57t-1.73.72a3.3 3.3 0 0 0-.57 2.1v.26q0 1.68.65 2.45.66.77 2.06.77a6 6 0 0 0 2.68-.6v1.22q-.45.27-1.2.44-.74.15-1.62.16-1.98 0-3-1.12m8.05-7.41h.98l.37 2.01H436q.38-.99 1.04-1.5a2.3 2.3 0 0 1 1.8-.51q.15 0 .26.03v1.26h-.36q-.92 0-1.52.52-.6.5-.84 1.48V606h-1.44zm10.76 7.85q-.91.68-2.53.68-.77 0-1.5-.16-.75-.16-1.25-.44v-1.21q.75.32 1.36.46t1.31.15q1.06 0 1.57-.3.51-.31.51-.95 0-.5-.3-.77-.3-.3-1.08-.5l-1.3-.35a4 4 0 0 1-1.69-.86 2 2 0 0 1-.53-1.43q0-1.09.85-1.7a4 4 0 0 1 2.32-.65q.8 0 1.46.13.66.12 1.13.35v1.22q-.62-.26-1.24-.37a6 6 0 0 0-1.25-.13q-.93 0-1.38.26a.9.9 0 0 0-.45.8q0 .45.28.72.28.25.99.45l1.33.35q1.21.32 1.76.9.54.55.54 1.51 0 1.17-.91 1.84"/><rect width="448" height="52" x="16" y="646" fill="#fff" rx="4"/><rect width="447" height="51" x="16.5" y="646.5" stroke="#161513" stroke-opacity=".5" rx="3.5"/><path fill="#161513" d="M32.91 657.28h1.5v8.55l-.96-1.17h5.02V666H32.9zm7.15 7.99q-.8-.88-.8-2.43t.8-2.42q.81-.87 2.27-.86 1.46 0 2.26.86.8.87.8 2.42t-.8 2.43-2.26.87-2.27-.87m3.45-.82q.42-.55.41-1.6 0-1.06-.4-1.6-.4-.55-1.2-.55-.77 0-1.18.55-.4.54-.4 1.6t.4 1.6 1.19.54 1.18-.54m3.5-3.62H45.9v-.73l1.14-.44.5-1.75h.93v1.78h1.35v1.14h-1.35v3.07q0 .5.22.72.23.21.68.22a3 3 0 0 0 .52-.04v1.21a5 5 0 0 1-.88.06q-1.02 0-1.52-.51-.49-.52-.49-1.61zm7.52 4.46q-.81-.86-.82-2.48 0-1.56.8-2.4a3 3 0 0 1 2.2-.85q1.32 0 2 .74.68.75.68 2.15v.81h-4.85v-1.03h4.12l-.61.47v-.43q0-.81-.34-1.2-.33-.4-1-.41-.77 0-1.16.47-.4.47-.4 1.34v.33q0 1.13.46 1.65t1.46.52a5 5 0 0 0 2.02-.42v1.15q-.39.2-.96.32t-1.21.12q-1.56 0-2.39-.85m7.95-2.95v.84l-2.42-3.5h1.67l1.64 2.55h-.53l1.7-2.54h1.5l-2.4 3.45v-.76l2.5 3.62H64.5l-1.75-2.72h.5l-1.8 2.72h-1.49zm4.63-2.65h.97l.31 1.4-.31-.07q.35-.69.95-1.08.6-.38 1.32-.38 1.24 0 1.95.87.7.87.71 2.4 0 1.56-.7 2.44t-1.96.87a2.5 2.5 0 0 1-2-.96l-.03-1.23q.3.53.74.8.44.28.99.28.48 0 .8-.25.34-.26.5-.74.18-.48.18-1.2 0-1.05-.38-1.6a1.2 1.2 0 0 0-1.08-.58q-.39 0-.73.17-.35.16-.6.48-.26.3-.37.7l.19-.67v3.2l.01.63v3.24h-1.46zM75.9 666h-1.47v-5.24l-.65-.47v-.6h2.12zm-1.68-8.78h1.68v1.2h-1.68zm3.35 2.47h.97l.36 1.57-.36-.04q.28-.75.8-1.15a2 2 0 0 1 1.48-.4q.1 0 .2.03v1.3h-.33q-.65 0-1.08.37-.43.34-.58.97V666h-1.46zm9.37 6.31h-.97l-.29-1.3.28.02q-.33.67-.91 1.05-.6.37-1.33.37-.97 0-1.54-.54a2 2 0 0 1-.56-1.46q0-.66.32-1.13.33-.46.92-.72.62-.26 1.44-.26h1.8v.93h-1.63q-.72 0-1.09.27-.36.26-.36.79 0 .47.26.74a1 1 0 0 0 .75.27 1.7 1.7 0 0 0 1.2-.52q.25-.25.4-.6l-.07.53v-1.82l-.02-.27v-.62q0-.6-.29-.82t-.91-.21q-.47 0-1 .1-.54.12-1.15.34V660q.47-.2 1.08-.32.63-.12 1.21-.12 1.21 0 1.84.55t.62 1.6zm1.9-5.17h-1.1v-.73l1.13-.44.5-1.75h.93v1.78h1.36v1.14H90.3v3.07q0 .5.23.72t.67.22a3 3 0 0 0 .53-.04v1.21a5 5 0 0 1-.89.06q-1 0-1.5-.51-.5-.52-.5-1.61zm5.75 5.17h-1.47v-5.24l-.64-.47v-.6h2.1zm-1.68-8.78h1.68v1.2H92.9zm3.8 8.05q-.8-.88-.8-2.43t.8-2.42q.82-.87 2.26-.86 1.47 0 2.27.86.8.87.8 2.42t-.8 2.43-2.27.87q-1.45 0-2.26-.87m3.45-.82q.4-.55.41-1.6 0-1.06-.4-1.6-.4-.55-1.2-.55-.78 0-1.18.55-.4.54-.4 1.6t.4 1.6 1.18.54q.8 0 1.2-.54m3.22-4.76h.97l.32 1.43-.35-.04q.28-.49.65-.83a2.8 2.8 0 0 1 1.87-.7q1.08 0 1.66.67.57.64.58 1.9V666h-1.47v-3.84q0-.7-.3-1.04-.3-.36-.89-.35-.51 0-.93.31-.42.3-.65.84V666h-1.47zM119.2 666h-.98l-.3-1.4.3.07q-.35.7-.95 1.09-.6.38-1.31.38-1.25 0-1.97-.87a3.7 3.7 0 0 1-.7-2.41q0-1.56.69-2.43a2.4 2.4 0 0 1 1.98-.87q.57 0 1.1.25.53.24.9.7l.03 1.24q-.31-.54-.75-.81a2 2 0 0 0-.98-.28q-.48 0-.82.25t-.5.75q-.17.48-.17 1.18 0 1.05.38 1.62.39.57 1.08.57.39 0 .72-.17.35-.17.6-.47.26-.3.39-.7l-.2.65V657h1.46zm6.6 0h-.98l-.29-1.3.28.02q-.33.67-.92 1.05-.58.37-1.33.37-.96 0-1.53-.54a2 2 0 0 1-.57-1.46q0-.66.33-1.13.32-.46.92-.72t1.44-.26h1.79v.93h-1.62q-.72 0-1.1.27-.35.26-.35.79 0 .47.26.74a1 1 0 0 0 .75.27 1.7 1.7 0 0 0 1.2-.52q.24-.25.4-.6l-.07.53v-1.82l-.02-.27v-.62q0-.6-.3-.82-.26-.21-.9-.21-.47 0-1.01.1-.53.12-1.14.34V660q.47-.2 1.08-.32t1.21-.12q1.2 0 1.84.55.62.55.62 1.6zm1.89-5.17h-1.1v-.73l1.13-.44.5-1.75h.93v1.78h1.36v1.14h-1.36v3.07q0 .5.23.72.22.21.67.22a3 3 0 0 0 .53-.04v1.21a5 5 0 0 1-.89.06q-1.01 0-1.51-.51-.5-.52-.5-1.61zm4.47 4.46q-.82-.86-.82-2.48 0-1.56.8-2.4a3 3 0 0 1 2.2-.85q1.31 0 2 .74.67.75.67 2.15v.81h-4.84v-1.03h4.11l-.6.47v-.43q0-.81-.34-1.2-.34-.4-1.01-.41-.76 0-1.16.47t-.4 1.34v.33q0 1.13.47 1.65t1.46.52a5 5 0 0 0 2.02-.42v1.15q-.4.2-.97.32t-1.2.12q-1.57 0-2.4-.85M33.62 684.7q-1.08-1.5-1.08-4.44 0-2.97 1.08-4.44 1.07-1.48 3.18-1.48 2.1 0 3.18 1.48 1.08 1.47 1.08 4.44 0 2.94-1.1 4.44-1.05 1.5-3.16 1.5a3.7 3.7 0 0 1-3.18-1.5m4.73-.25q.63-.53.93-1.57.3-1.06.3-2.62 0-1.58-.3-2.63t-.93-1.55q-.6-.51-1.55-.51a2.4 2.4 0 0 0-1.57.51q-.6.51-.91 1.55-.3 1.05-.3 2.63 0 1.56.3 2.62.3 1.05.93 1.57.62.51 1.55.51.95 0 1.55-.51m10.9-9.03.15.32h-5.65l.6-.36-.56 2.17h-.85v-3.02h7.68v.94L46.36 686h-1.55zm8.67-1.44h1.5l-6.62 15.24h-1.47zm3.26 10.72q-1.08-1.5-1.07-4.44 0-2.97 1.07-4.44t3.18-1.48 3.19 1.48q1.07 1.47 1.07 4.44 0 2.94-1.09 4.44-1.07 1.5-3.17 1.5a3.7 3.7 0 0 1-3.18-1.5m4.73-.25q.63-.53.93-1.57.3-1.06.3-2.62 0-1.58-.3-2.63t-.93-1.55q-.6-.51-1.55-.51a2.4 2.4 0 0 0-1.57.51q-.6.51-.9 1.55-.31 1.05-.31 2.63 0 1.56.3 2.62.3 1.05.93 1.57.63.51 1.55.51.95 0 1.55-.51m9.45.94h-1.44v-10.37l.77 1.01-3.93 1.47v-.9l3.55-2.07h1.05zm2.7.61h-7.3v-1.23h7.3zm7.43-12.02h1.48l-6.6 15.24h-1.48zm5.9 7.56a28 28 0 0 0 1.48-1.73q.57-.72.83-1.27t.26-1.02q0-.94-.58-1.44-.56-.5-1.66-.5-.46 0-1 .12-.52.09-1.07.3-.52.2-1.07.5v-1.25q.63-.42 1.5-.66a6 6 0 0 1 1.72-.25q1.13 0 1.93.36.8.37 1.22 1.08.43.69.43 1.7 0 .6-.3 1.29t-.95 1.53q-.62.83-1.64 1.94l-3.06 3.28-.53-.75h6.51V686H88.2v-1zm7.34-7.01h5.84v1.23H99l.88-.7-.64 5.1-.6-.38q.56-.41 1.34-.68a4.7 4.7 0 0 1 3.52.16q.82.44 1.3 1.24.45.8.46 1.9 0 1.17-.52 2.03-.5.85-1.42 1.31-.9.45-2.17.45-.89 0-1.69-.17a5 5 0 0 1-1.45-.55v-1.25a6.4 6.4 0 0 0 3.07.72q1.33 0 2.05-.68.73-.69.73-1.86 0-1.14-.65-1.74a2.5 2.5 0 0 0-1.78-.63 5.4 5.4 0 0 0-2.48.61l-.88-.69z"/></g><mask id="f" fill="#fff"><path d="M0 684h480v116H0z"/></mask><path fill="#FBF9F8" d="M0 684h480v116H0z"/><path fill="#161513" fill-opacity=".12" d="M0 684v1h480v-2H0z" mask="url(#f)"/><rect width="447" height="35" x="16.5" y="700.5" stroke="#161513" stroke-opacity=".5" rx="3.5"/><path fill="#161513" d="M220.4 721.82q-1.23-1.38-1.23-3.94 0-1.58.58-2.7.6-1.12 1.68-1.74a5 5 0 0 1 2.6-.62 5 5 0 0 1 2.42.58v1.47q-.73-.3-1.27-.42-.53-.13-1.04-.13-1.52 0-2.37.94-.84.92-.84 2.63 0 1.82.83 2.81.84.98 2.38.98.61 0 1.24-.14.6-.14 1.38-.44v1.46q-.55.27-1.27.44-.74.18-1.55.18-2.32 0-3.54-1.36m13.67 1.18h-1.11l-.33-1.49.31.02q-.38.77-1.04 1.2a3 3 0 0 1-1.53.43q-1.1 0-1.76-.61a2.2 2.2 0 0 1-.65-1.68q0-.76.38-1.3.37-.53 1.06-.82.7-.3 1.64-.3h2.05v1.07h-1.85q-.83 0-1.25.3t-.42.91q0 .54.3.85.31.3.86.3a2 2 0 0 0 1.37-.59q.3-.29.47-.68l-.08.6v-2.09l-.03-.3v-.72q0-.68-.33-.93-.32-.25-1.04-.25-.54 0-1.16.13-.6.12-1.3.38v-1.3q.53-.24 1.23-.38.72-.13 1.4-.13 1.38 0 2.1.63.7.61.71 1.84zm1.86-7.23h1.1l.38 1.63-.4-.04q.32-.56.74-.95a3.2 3.2 0 0 1 2.15-.8q1.23 0 1.9.76.66.75.66 2.17V723h-1.68v-4.4q0-.8-.34-1.2-.33-.4-1.02-.4-.6 0-1.07.36a2 2 0 0 0-.75.97V723h-1.67zm8.37 5.68q-.4-.87-.4-2.15 0-1.15.43-1.98.44-.83 1.24-1.26.81-.45 1.92-.44a5 5 0 0 1 1.87.38v1.32a3.5 3.5 0 0 0-1.58-.4q-1.07 0-1.62.6t-.55 1.78q0 1.24.5 1.88.5.65 1.52.65.45 0 .92-.1.48-.14 1.02-.35v1.33q-.41.21-.99.33-.57.12-1.18.13-1.14 0-1.93-.43-.76-.45-1.17-1.3m7.23.74q-.94-.99-.94-2.85 0-1.78.9-2.75.92-.97 2.54-.97 1.5 0 2.28.85.78.86.79 2.46v.94h-5.56v-1.19h4.72l-.7.54v-.5q0-.92-.39-1.37-.38-.47-1.16-.47-.86 0-1.31.54t-.46 1.54v.37q0 1.3.52 1.9.54.59 1.68.59a6 6 0 0 0 2.31-.48v1.32q-.45.23-1.1.37t-1.39.13q-1.78 0-2.73-.97m8.77.81h-1.68v-9.1l-.74-.55v-.68h2.42z"/><rect width="448" height="36" x="16" y="748" fill="#312D2A" rx="4"/><path fill="#fff" d="M217.4 761h1.73v5.35q0 1.74.55 2.53.54.8 1.74.8t1.74-.8q.55-.8.55-2.53V761h1.73v5.38q0 2.48-1 3.64-.98 1.16-3.02 1.16t-3.04-1.16-.99-3.64zm9.9 2.77h1.1l.36 1.6-.35-.08q.39-.8 1.08-1.23.7-.45 1.51-.44 1.43 0 2.25 1 .8 1 .8 2.75 0 1.79-.8 2.8a2.7 2.7 0 0 1-2.25 1q-.66 0-1.26-.3-.6-.29-1.03-.8l-.03-1.42q.36.6.85.92t1.13.32q.55 0 .92-.3.39-.29.58-.83.2-.57.2-1.38 0-1.19-.44-1.84-.43-.66-1.23-.66-.44 0-.84.2-.4.18-.69.54-.3.35-.42.81l.22-.76v8.09h-1.67zm14.64 7.23h-1.11l-.36-1.6.36.07q-.4.8-1.1 1.25-.69.45-1.5.44-1.42 0-2.25-1a4.3 4.3 0 0 1-.82-2.76q0-1.8.8-2.78.81-1 2.27-1 .66 0 1.27.28.6.28 1.03.8l.02 1.43a3 3 0 0 0-.85-.93q-.49-.32-1.13-.32-.54 0-.93.29-.37.3-.58.85t-.2 1.36q0 1.2.45 1.86.44.65 1.24.65.43 0 .82-.2.4-.18.69-.53.3-.36.44-.81l-.22.75v-3.68l-.02-.7v-4.05h1.68zm7.56 0h-1.12l-.32-1.49.31.02q-.38.77-1.04 1.2a3 3 0 0 1-1.53.43q-1.1 0-1.76-.61a2.2 2.2 0 0 1-.65-1.68q0-.76.38-1.3.37-.53 1.05-.82.7-.3 1.65-.3h2.05v1.07h-1.85q-.83 0-1.25.3t-.42.91q0 .54.3.85.31.3.86.3a2 2 0 0 0 1.37-.59q.3-.29.47-.68l-.08.6v-2.09l-.03-.3v-.72q0-.68-.33-.93-.31-.25-1.05-.25-.53 0-1.15.13-.6.12-1.3.38v-1.3q.53-.24 1.23-.38.72-.13 1.39-.13 1.4 0 2.1.63.72.61.72 1.84zm2.17-5.93h-1.26v-.84l1.3-.49.56-2h1.08v2.03h1.55v1.3h-1.55v3.52q0 .56.26.83.26.25.77.25l.3-.02.3-.02V771a6 6 0 0 1-1.01.07q-1.15 0-1.74-.59-.56-.59-.56-1.84zm5.12 5.12q-.93-.99-.93-2.85 0-1.78.9-2.75t2.53-.97q1.51 0 2.29.85.78.86.78 2.46v.94h-5.56v-1.19h4.72l-.7.54v-.5q0-.92-.38-1.37-.4-.47-1.16-.47-.87 0-1.32.54t-.45 1.54v.37q0 1.3.52 1.9.54.59 1.68.59a6 6 0 0 0 2.3-.48v1.32q-.44.23-1.1.37-.65.13-1.38.13-1.79 0-2.74-.97"/><defs><clipPath id="b"><path fill="#fff" d="M0 76h480v608H0z"/></clipPath><clipPath id="c"><path fill="#fff" d="M28 340h376v36H28z"/></clipPath><clipPath id="d"><path fill="#fff" d="M28 418h376v36H28z"/></clipPath><clipPath id="e"><path fill="#fff" d="M28 496h376v36H28z"/></clipPath></defs></svg>